<svg data-name="Layer 1" version="1.1" viewBox="0 0 42.29 38.627" xmlns="http://www.w3.org/2000/svg">
<path d="m8.2104 38.621a2.06 2.06 0 0 1-1.49-0.55 2.24 2.24 0 0 1-0.66-1.27l-6-35.26a0.81 0.81 0 0 1-0.06-0.22v-0.16a1 1 0 0 1 0.33-0.77 1.17 1.17 0 0 1 0.83-0.39h6.84c1 0 1.6 0.4 1.71 1.21l3.59 21.52 4-12.69a3.62 3.62 0 0 1 0.55-0.94 1.46 1.46 0 0 1 1.27-0.55h4a1.53 1.53 0 0 1 1.33 0.55 2.66 2.66 0 0 1 0.49 0.94l4 12.69 3.59-21.52c0.11-0.81 0.68-1.21 1.71-1.21h6.84a1 1 0 0 1 0.83 0.39 1 1 0 0 1 0.38 0.77 0.32 0.32 0 0 1-0.05 0.16v0.22l-6 35.26a2.32 2.32 0 0 1-0.67 1.27 2 2 0 0 1-1.49 0.55h-5.38a1.94 1.94 0 0 1-1.43-0.5 2.71 2.71 0 0 1-0.66-0.94l-5.57-15.78-5.58 15.78a2.71 2.71 0 0 1-0.66 0.94 1.75 1.75 0 0 1-1.38 0.5z" fill="#dc241f"/>
</svg>
